<?xml version="1.0" encoding="UTF-8" standalone="no"?>
<!DOCTYPE svg PUBLIC "-//W3C//DTD SVG 1.1//EN" "http://www.w3.org/Graphics/SVG/1.1/DTD/svg11.dtd">
<svg width="100%" height="100%" viewBox="0 0 601 57" version="1.1" xmlns="http://www.w3.org/2000/svg" xmlns:xlink="http://www.w3.org/1999/xlink" xml:space="preserve" xmlns:serif="http://www.serif.com/" style="fill-rule:evenodd;clip-rule:evenodd;stroke-linejoin:round;stroke-miterlimit:2;">
    <g transform="matrix(1.00241,0,0,1.01427,-0.756615,-0.0872255)">
        <path d="M601.647,-0.668L-1.079,-0.668L-1.079,57.783L601.647,57.783L601.647,-0.668ZM0,21.6C0,21.6 28.6,25.4 39.1,25.4C55.9,25.4 67.2,15.6 97.9,15.6C128.6,15.6 170,28.3 196.1,28.3C222.2,28.3 254.9,13.6 290.7,13.6C326.5,13.6 448.4,27.5 482.7,27.5C517,27.5 523,12.7 551.3,12.7C579.6,12.7 585.4,17.1 600.3,21.7L600.3,57.1L0,57.1L0,21.6Z" style="fill:white;"/>
    </g>
</svg>
